# xmcd
#
# Track frame offsets: 
#        150
#        13382
#        28461
#        47732
#        61637
#        77250
#        93647
#        109528
#        131741
#        142911
#        158571
#        166714
#        183151
#        198654
#        213505
#
# Disc length: 3082 seconds
#
# Revision: 0
# Processed by: cddbd v1.5.2PL0 Copyright (c) Steve Scherf et al.
# Submitted via: ExactAudioCopy v0.99pb4
#
DISCID=c30c080f
DTITLE=Victoria Huggins - fifteen
DYEAR=2008
DGENRE=Gospel
TTITLE0=The Best of Both Worlds
TTITLE1=Our Song
TTITLE2=At Last
TTITLE3=If We Were a Movie
TTITLE4=You Are The Music in Me
TTITLE5=Me And My Gang
TTITLE6=I'm Alive
TTITLE7=God Speaking
TTITLE8=Get Your Head in the Game
TTITLE9=Breaking Free
TTITLE10=Bop to the Top
TTITLE11=From This Moment On
TTITLE12=Only The World
TTITLE13=Who Said
TTITLE14=I Drove All Night
EXTD=
EXTT0=
EXTT1=
EXTT2=
EXTT3=
EXTT4=
EXTT5=
EXTT6=
EXTT7=
EXTT8=
EXTT9=
EXTT10=
EXTT11=
EXTT12=
EXTT13=
EXTT14=
PLAYORDER=
